0
SECTION
2
HEADER
9
$INSUNITS
70
4
9
$ACADVER
1
AC1014
9
$HANDSEED
5
FFFF
0
ENDSEC
0
SECTION
2
TABLES
0
TABLE
2
VPORT
5
8
100
AcDbSymbolTable
0
ENDTAB
0
TABLE
2
LTYPE
5
5
100
AcDbSymbolTable
0
LTYPE
5
14
100
AcDbSymbolTableRecord
100
AcDbLinetypeTableRecord
2
BYBLOCK
70
0
0
LTYPE
5
15
100
AcDbSymbolTableRecord
100
AcDbLinetypeTableRecord
2
BYLAYER
70
0
0
ENDTAB
0
TABLE
2
LAYER
5
2
100
AcDbSymbolTable
70
2
0
LAYER
5
50
100
AcDbSymbolTableRecord
100
AcDbLayerTableRecord
2
0
70
0
6
CONTINUOUS
0
ENDTAB
0
TABLE
2
STYLE
5
3
100
AcDbSymbolTable
70
1
0
STYLE
5
11
100
AcDbSymbolTableRecord
100
AcDbTextStyleTableRecord
2
STANDARD
70
0
0
ENDTAB
0
TABLE
2
VIEW
5
6
100
AcDbSymbolTable
70
0
0
ENDTAB
0
TABLE
2
UCS
5
7
100
AcDbSymbolTable
70
0
0
ENDTAB
0
TABLE
2
APPID
5
9
100
AcDbSymbolTable
70
2
0
APPID
5
12
100
AcDbSymbolTableRecord
100
AcDbRegAppTableRecord
2
ACAD
70
0
0
ENDTAB
0
TABLE
2
DIMSTYLE
5
A
100
AcDbSymbolTable
70
1
0
ENDTAB
0
TABLE
2
BLOCK_RECORD
5
1
100
AcDbSymbolTable
70
1
0
BLOCK_RECORD
5
1F
100
AcDbSymbolTableRecord
100
AcDbBlockTableRecord
2
*MODEL_SPACE
0
BLOCK_RECORD
5
1B
100
AcDbSymbolTableRecord
100
AcDbBlockTableRecord
2
*PAPER_SPACE
0
ENDTAB
0
ENDSEC
0
SECTION
2
BLOCKS
0
BLOCK
5
20
100
AcDbEntity
100
AcDbBlockBegin
2
*MODEL_SPACE
0
ENDBLK
5
21
100
AcDbEntity
100
AcDbBlockEnd
0
BLOCK
5
1C
100
AcDbEntity
100
AcDbBlockBegin
2
*PAPER_SPACE
0
ENDBLK
5
1D
100
AcDbEntity
100
AcDbBlockEnd
0
ENDSEC
0
SECTION
2
ENTITIES
0
LINE
5
100
100
AcDbEntity
8
0
100
AcDbLine
10
0
20
215
30
0
11
100.00009109970551
21
215
31
0
0
LINE
5
101
100
AcDbEntity
8
0
100
AcDbLine
10
100.00009109970551
20
215
30
0
11
100.00009109970551
21
200
31
0
0
LINE
5
102
100
AcDbEntity
8
0
100
AcDbLine
10
0
20
200
30
0
11
0
21
215
31
0
0
LINE
5
103
100
AcDbEntity
8
0
100
AcDbLine
10
50.000045549852757
20
200
30
0
11
45.09540311011493
21
159.17610386133924
31
0
0
LINE
5
104
100
AcDbEntity
8
0
100
AcDbLine
10
50.000045549852757
20
200
30
0
11
55.32566980491238
21
160.93030649988006
31
0
0
LINE
5
105
100
AcDbEntity
8
0
100
AcDbLine
10
75.000503274966363
20
200
30
0
11
79.821326181759218
21
164.63361582300618
31
0
0
LINE
5
106
100
AcDbEntity
8
0
100
AcDbLine
10
75.000503274966363
20
200
30
0
11
89.697270548906559
21
164.90044367759455
31
0
0
LINE
5
107
100
AcDbEntity
8
0
100
AcDbLine
10
25.060141571648199
20
200
30
0
11
19.861285002469526
21
156.27968189656042
31
0
0
LINE
5
108
100
AcDbEntity
8
0
100
AcDbLine
10
0
20
200
30
0
11
-15.000000000000128
21
160.00000000000193
31
0
0
LINE
5
109
100
AcDbEntity
8
0
100
AcDbLine
10
25.060141571648199
20
200
30
0
11
9.811159877441197
21
156.16209157902884
31
0
0
LINE
5
110
100
AcDbEntity
8
0
100
AcDbLine
10
100.00009109970551
20
200
30
0
11
114.11154211439388
21
162.08289573135914
31
0
0
SPLINE
5
111
100
AcDbEntity
8
0
100
AcDbSpline
70
4
71
5
72
21
73
15
74
0
42
0.000000001
43
0.0000000001
44
0.0000000001
40
0
40
0
40
0
40
0
40
0
40
0
40
0.10000000000000001
40
0.20000000000000001
40
0.30000000000000004
40
0.40000000000000002
40
0.5
40
0.59999999999999998
40
0.69999999999999996
40
0.79999999999999993
40
0.89999999999999991
40
1
40
1
40
1
40
1
40
1
40
1
41
1
41
1
41
1
41
1
41
1
41
1
41
1
41
1
41
1
41
1
41
1
41
1
41
1
41
1
41
1
10
-15.000000000000128
20
160.00000000000193
30
0
10
-14.402363617522269
20
159.8482737114353
30
0
10
-13.215533902917292
20
159.55106252798578
30
0
10
-11.460616828842166
20
159.12396871174457
30
0
10
-9.172230032279705
20
158.5925828125595
30
0
10
-6.4037792354148246
20
157.99638418016684
30
0
10
-3.7368219597895824
20
157.4752130552819
30
0
10
-1.1818507188833378
20
157.03682586541595
30
0
10
1.2521493510862243
20
156.68786473286718
30
0
10
3.5639326438012726
20
156.42925045276681
30
0
10
5.7601307782272002
20
156.25608070390652
30
0
10
7.4309483247686661
20
156.18122327098581
30
0
10
8.6384917123303389
20
156.15876694201609
30
0
10
9.4235918250835375
20
156.15852812068152
30
0
10
9.811159877441197
20
156.16209157902884
30
0
0
SPLINE
5
112
100
AcDbEntity
8
0
100
AcDbSpline
70
4
71
5
72
21
73
15
74
0
42
0.000000001
43
0.0000000001
44
0.0000000001
40
0
40
0
40
0
40
0
40
0
40
0
40
0.10000000000000001
40
0.20000000000000001
40
0.30000000000000004
40
0.40000000000000002
40
0.5
40
0.59999999999999998
40
0.69999999999999996
40
0.79999999999999993
40
0.89999999999999991
40
1
40
1
40
1
40
1
40
1
40
1
41
1
41
1
41
1
41
1
41
1
41
1
41
1
41
1
41
1
41
1
41
1
41
1
41
1
41
1
41
1
10
19.861285002469526
20
156.27968189656042
30
0
10
20.444675877182181
20
156.32093527862028
30
0
10
21.604801001066221
20
156.40485230458427
30
0
10
23.325020108393829
20
156.53495835404442
30
0
10
25.578040165799468
20
156.71703568459009
30
0
10
28.321855425966124
20
156.95998356541378
30
0
10
30.986057663116764
20
157.2197981315885
30
0
10
33.562997831468977
20
157.49809989748209
30
0
10
36.046657995279119
20
157.79616381314781
30
0
10
38.437729095747372
20
158.11384349689956
30
0
10
40.741964773018196
20
158.44991999190253
30
0
10
42.520960177463174
20
158.7324234130453
30
0
10
43.821195493582898
20
158.9515065441858
30
0
10
44.673146013516288
20
159.10071293960075
30
0
10
45.09540311011493
20
159.17610386133924
30
0
0
SPLINE
5
113
100
AcDbEntity
8
0
100
AcDbSpline
70
4
71
5
72
21
73
15
74
0
42
0.000000001
43
0.0000000001
44
0.0000000001
40
0
40
0
40
0
40
0
40
0
40
0
40
0.10000000000000001
40
0.20000000000000001
40
0.30000000000000004
40
0.40000000000000002
40
0.5
40
0.59999999999999998
40
0.69999999999999996
40
0.79999999999999993
40
0.89999999999999991
40
1
40
1
40
1
40
1
40
1
40
1
41
1
41
1
41
1
41
1
41
1
41
1
41
1
41
1
41
1
41
1
41
1
41
1
41
1
41
1
41
1
10
55.32566980491238
20
160.93030649988006
30
0
10
55.847783309866735
20
161.02786377780248
30
0
10
56.889240145608362
20
161.220957412784
30
0
10
58.44311530887164
20
161.50453541793428
30
0
10
60.498051508298467
20
161.87031232610059
30
0
10
63.036611750172156
20
162.30556735427328
30
0
10
65.542234237250227
20
162.71679335321244
30
0
10
68.012009600917096
20
163.10186785571091
30
0
10
70.443966300401698
20
163.4593525666607
30
0
10
72.839063457392754
20
163.78994719260868
30
0
10
75.199864080854141
20
164.0955215215088
30
0
10
77.063206280502754
20
164.32152515560333
30
0
10
78.447370783346514
20
164.48129440538759
30
0
10
79.364313347821394
20
164.58355133682147
30
0
10
79.821326181759218
20
164.63361582300618
30
0
0
SPLINE
5
114
100
AcDbEntity
8
0
100
AcDbSpline
70
4
71
5
72
21
73
15
74
0
42
0.000000001
43
0.0000000001
44
0.0000000001
40
0
40
0
40
0
40
0
40
0
40
0
40
0.10000000000000001
40
0.20000000000000001
40
0.30000000000000004
40
0.40000000000000002
40
0.5
40
0.59999999999999998
40
0.69999999999999996
40
0.79999999999999993
40
0.89999999999999991
40
1
40
1
40
1
40
1
40
1
40
1
41
1
41
1
41
1
41
1
41
1
41
1
41
1
41
1
41
1
41
1
41
1
41
1
41
1
41
1
41
1
10
89.697270548906559
20
164.90044367759455
30
0
10
90.234788105477165
20
164.91329656787417
30
0
10
91.305597724060874
20
164.93306272086812
30
0
10
92.899136359927766
20
164.94489403991068
30
0
10
94.998079893841251
20
164.92443862612845
30
0
10
97.575821698613822
20
164.83429648904686
30
0
10
100.1032803268925
20
164.67347307738908
30
0
10
102.575961332118
20
164.43565070733234
30
0
10
104.99074094486264
20
164.11643840719307
30
0
10
107.34895095132046
20
163.71770822150583
30
0
10
109.65447043780426
20
163.24491284406861
30
0
10
111.45999191950914
20
162.81200447719729
30
0
10
112.79361653230316
20
162.45848388910392
30
0
10
113.67372873224662
20
162.21019345644675
30
0
10
114.11154211439388
20
162.08289573135914
30
0
0
LINE
5
115
100
AcDbEntity
8
0
100
AcDbLine
10
100
20
50
30
0
11
100
21
0
31
0
0
LWPOLYLINE
5
116
100
AcDbEntity
8
0
100
AcDbPolyline
90
6
70
1
43
0.0
10
0
20
0
10
0
20
50
10
0
20
60
10
100
20
60
10
100
20
50.00000074505806
10
100
20
0
0
LINE
5
117
100
AcDbEntity
8
0
100
AcDbLine
10
0
20
0
30
0
11
0
21
50
31
0
0
LWPOLYLINE
5
118
100
AcDbEntity
8
0
100
AcDbPolyline
90
4
70
1
43
0.0
10
49.500000000000014
20
50
10
50.500000000000007
20
50
10
50.500000000000007
20
0.99999999999999645
10
49.500000000000014
20
0.99999999999999645
0
LWPOLYLINE
5
119
100
AcDbEntity
8
0
100
AcDbPolyline
90
4
70
1
43
0.0
10
74.500000000000014
20
50
10
75.5
20
50
10
75.5
20
0.99999999999999645
10
74.500000000000014
20
0.99999999999999645
0
LWPOLYLINE
5
120
100
AcDbEntity
8
0
100
AcDbPolyline
90
4
70
1
43
0.0
10
25.500000000000004
20
50
10
24.5
20
50
10
24.5
20
0.99999999999999645
10
25.500000000000004
20
0.99999999999999645
0
LWPOLYLINE
5
121
100
AcDbEntity
8
0
100
AcDbPolyline
90
4
70
1
43
0.0
10
-15
20
75
10
115
20
75
10
115
20
65
10
-15
20
65
0
LWPOLYLINE
5
122
100
AcDbEntity
8
0
100
AcDbPolyline
90
4
70
1
43
0.0
10
0
20
220
10
100
20
220
10
100
20
235
10
0
20
235
0
LINE
5
123
100
AcDbEntity
8
0
100
AcDbLine
10
15
20
140
30
0
11
25
21
140
31
0
0
LWPOLYLINE
5
124
100
AcDbEntity
8
0
100
AcDbPolyline
90
4
70
1
43
0.0
10
30
20
90
10
10
20
90
10
10.000000149011612
20
92.00000137090683
10
10.000000149011612
20
90
0
LINE
5
125
100
AcDbEntity
8
0
100
AcDbLine
10
45
20
140
30
0
11
55
21
140
31
0
0
LWPOLYLINE
5
126
100
AcDbEntity
8
0
100
AcDbPolyline
90
4
70
1
43
0.0
10
60
20
90
10
40
20
90
10
40.000000596046448
20
92.00000137090683
10
40.000000596046448
20
90
0
ARC
5
127
100
AcDbEntity
8
0
100
AcDbCircle
10
24.999999999999993
20
135
30
0
40
5
210
0
220
-0
230
1
100
AcDbArc
50
0
51
89.999999999999929
0
ARC
5
128
100
AcDbEntity
8
0
100
AcDbCircle
10
15.000000000000011
20
134.99999999999997
30
0
40
5.0000000000000178
210
0
220
0
230
1
100
AcDbArc
50
90.000000000000128
51
180
0
ARC
5
129
100
AcDbEntity
8
0
100
AcDbCircle
10
45.000000000000007
20
135
30
0
40
5
210
0
220
0
230
1
100
AcDbArc
50
90.000000000000099
51
180
0
ARC
5
130
100
AcDbEntity
8
0
100
AcDbCircle
10
54.999999999999993
20
135
30
0
40
5
210
0
220
-0
230
1
100
AcDbArc
50
0
51
89.999999999999929
0
LINE
5
131
100
AcDbEntity
8
0
100
AcDbLine
10
21.000000312924385
20
125.00000186264515
30
0
11
21.000000312924385
21
95.000001415610313
31
0
0
LINE
5
132
100
AcDbEntity
8
0
100
AcDbLine
10
19.000000283122063
20
95.000001415610313
30
0
11
19.000000283122063
21
125.00000186264515
31
0
0
LINE
5
133
100
AcDbEntity
8
0
100
AcDbLine
10
51.000000759959221
20
125.00000186264515
30
0
11
51.000000759959221
21
95.000001415610313
31
0
0
LINE
5
134
100
AcDbEntity
8
0
100
AcDbLine
10
49.000000730156898
20
95.000001415610313
30
0
11
49.000000730156898
21
125.00000186264515
31
0
0
LWPOLYLINE
5
135
100
AcDbEntity
8
0
100
AcDbPolyline
90
2
70
1
43
0.0
10
30
20
92.00000137090683
10
30
20
90
0
LWPOLYLINE
5
136
100
AcDbEntity
8
0
100
AcDbPolyline
90
2
70
1
43
0.0
10
60
20
92.00000137090683
10
60
20
90
0
SPLINE
5
137
100
AcDbEntity
8
0
100
AcDbSpline
70
4
71
5
72
21
73
15
74
0
42
0.000000001
43
0.0000000001
44
0.0000000001
40
0
40
0
40
0
40
0
40
0
40
0
40
0.10000000000000001
40
0.20000000000000001
40
0.30000000000000004
40
0.40000000000000002
40
0.5
40
0.59999999999999998
40
0.69999999999999996
40
0.79999999999999993
40
0.89999999999999991
40
1
40
1
40
1
40
1
40
1
40
1
41
1
41
1
41
1
41
1
41
1
41
1
41
1
41
1
41
1
41
1
41
1
41
1
41
1
41
1
41
1
10
19.000000283122063
20
95.000001415610313
30
0
10
18.849101232416515
20
94.898659401961879
30
0
10
18.544729921021666
20
94.699630982909525
30
0
10
18.080453390933812
20
94.412055083944551
30
0
10
17.445724312589746
20
94.050915676507728
30
0
10
16.624409602112063
20
93.639132085025295
30
0
10
15.77280832444808
20
93.270374840170149
30
0
10
14.888619921446903
20
92.947912209747756
30
0
10
13.970907060417421
20
92.673075807242483
30
0
10
13.021347618612978
20
92.443481971015601
30
0
10
12.042494601918136
20
92.255503795596098
30
0
10
11.237974078089001
20
92.135577119287149
30
0
10
10.62330240301257
20
92.061658766888741
30
0
10
10.208589561334133
20
92.019386077194156
30
0
10
10.000000149011612
20
92.00000137090683
30
0
0
SPLINE
5
138
100
AcDbEntity
8
0
100
AcDbSpline
70
4
71
5
72
21
73
15
74
0
42
0.000000001
43
0.0000000001
44
0.0000000001
40
0
40
0
40
0
40
0
40
0
40
0
40
0.10000000000000001
40
0.20000000000000001
40
0.30000000000000004
40
0.40000000000000002
40
0.5
40
0.59999999999999998
40
0.69999999999999996
40
0.79999999999999993
40
0.89999999999999991
40
1
40
1
40
1
40
1
40
1
40
1
41
1
41
1
41
1
41
1
41
1
41
1
41
1
41
1
41
1
41
1
41
1
41
1
41
1
41
1
41
1
10
21.000000312924385
20
95.000001415610313
30
0
10
21.150899365450563
20
94.898659404243745
30
0
10
21.455270679513898
20
94.699630989526582
30
0
10
21.919547210685977
20
94.412055096378737
30
0
10
22.554276284543604
20
94.050915695303132
30
0
10
23.375590978885405
20
93.639132109304356
30
0
10
24.227192229060627
20
93.270374867341872
30
0
10
25.111380592472852
20
92.9479122371703
30
0
10
26.029093401741569
20
92.673075832578618
30
0
10
26.978652780441724
20
92.443481992349277
30
0
10
27.957505723695224
20
92.255503811298382
30
0
10
28.762026181252331
20
92.135577129355539
30
0
10
29.376697802674737
20
92.061658772146671
30
0
10
29.79141060685717
20
92.019386078989442
30
0
10
30
20
92.00000137090683
30
0
0
SPLINE
5
139
100
AcDbEntity
8
0
100
AcDbSpline
70
4
71
5
72
21
73
15
74
0
42
0.000000001
43
0.0000000001
44
0.0000000001
40
0
40
0
40
0
40
0
40
0
40
0
40
0.10000000000000001
40
0.20000000000000001
40
0.30000000000000004
40
0.40000000000000002
40
0.5
40
0.59999999999999998
40
0.69999999999999996
40
0.79999999999999993
40
0.89999999999999991
40
1
40
1
40
1
40
1
40
1
40
1
41
1
41
1
41
1
41
1
41
1
41
1
41
1
41
1
41
1
41
1
41
1
41
1
41
1
41
1
41
1
10
49.000000730156898
20
95.000001415610313
30
0
10
48.849101679447116
20
94.898659401961879
30
0
10
48.544730368044888
20
94.699630982909525
30
0
10
48.080453837949257
20
94.412055083944551
30
0
10
47.445724759600992
20
94.050915676507728
30
0
10
46.624410049126723
20
93.639132085025295
30
0
10
45.772808771472029
20
93.270374840170149
30
0
10
44.888620368483352
20
92.947912209747756
30
0
10
43.970907507466464
20
92.673075807242483
30
0
10
43.021348065671539
20
92.443481971015601
30
0
10
42.042495048979845
20
92.255503795596098
30
0
10
41.237974525145788
20
92.135577119287149
30
0
10
40.623302850060483
20
92.061658766888741
30
0
10
40.208590008373726
20
92.019386077194156
30
0
10
40.000000596046448
20
92.00000137090683
30
0
0
SPLINE
5
140
100
AcDbEntity
8
0
100
AcDbSpline
70
4
71
5
72
21
73
15
74
0
42
0.000000001
43
0.0000000001
44
0.0000000001
40
0
40
0
40
0
40
0
40
0
40
0
40
0.10000000000000001
40
0.20000000000000001
40
0.30000000000000004
40
0.40000000000000002
40
0.5
40
0.59999999999999998
40
0.69999999999999996
40
0.79999999999999993
40
0.89999999999999991
40
1
40
1
40
1
40
1
40
1
40
1
41
1
41
1
41
1
41
1
41
1
41
1
41
1
41
1
41
1
41
1
41
1
41
1
41
1
41
1
41
1
10
51.000000759959221
20
95.000001415610313
30
0
10
51.150899814298157
20
94.898659406562658
30
0
10
51.455271131016609
20
94.699630996244721
30
0
10
51.919547663260339
20
94.412055108979601
30
0
10
52.55427673262755
20
94.050915714295286
30
0
10
53.375591410842617
20
93.639132133743658
30
0
10
54.227192633544952
20
93.270374894592777
30
0
10
55.111380957384
20
92.947912264578264
30
0
10
56.029093714902757
20
92.673075857819285
30
0
10
56.978653030503061
20
92.443482013537377
30
0
10
57.957505900313635
20
92.255503826847331
30
0
10
58.762026291593621
20
92.135577139304402
30
0
10
59.37669785935676
20
92.061658777335055
30
0
10
59.791410626039088
20
92.019386080759659
30
0
10
60
20
92.00000137090683
30
0
0
LINE
5
141
100
AcDbEntity
8
0
100
AcDbLine
10
29.999999999999993
20
135
30
0
11
29.999999999999993
21
125.00000186264515
31
0
0
LINE
5
142
100
AcDbEntity
8
0
100
AcDbLine
10
10.000000149011612
20
125.00000186264515
30
0
11
9.9999999999999947
21
135
31
0
0
LINE
5
143
100
AcDbEntity
8
0
100
AcDbLine
10
10.000000149011612
20
92.00000137090683
30
0
11
10.000080937769029
21
92.000008878908687
31
0
0
LINE
5
144
100
AcDbEntity
8
0
100
AcDbLine
10
29.999919211324993
20
92.00000887890242
30
0
11
30
21
92.00000137090683
31
0
0
LINE
5
145
100
AcDbEntity
8
0
100
AcDbLine
10
40.000000596046448
20
125.00000186264515
30
0
11
40.000000000000007
21
135
31
0
0
LINE
5
146
100
AcDbEntity
8
0
100
AcDbLine
10
40.000000596046448
20
92.00000137090683
30
0
11
40.000081384803863
21
92.000008878908687
31
0
0
LINE
5
147
100
AcDbEntity
8
0
100
AcDbLine
10
59.999919211406123
20
92.000008878896281
30
0
11
60
21
92.00000137090683
31
0
0
LINE
5
148
100
AcDbEntity
8
0
100
AcDbLine
10
59.999999999999993
20
135
30
0
11
59.999999999999993
21
125.00000186264515
31
0
0
LINE
5
149
100
AcDbEntity
8
0
100
AcDbLine
10
40.000000596046448
20
125.00000186264515
30
0
11
49.000000730156898
21
125.00000186264515
31
0
0
LINE
5
150
100
AcDbEntity
8
0
100
AcDbLine
10
51.000000759959221
20
125.00000186264515
30
0
11
59.999999999999993
21
125.00000186264515
31
0
0
LINE
5
151
100
AcDbEntity
8
0
100
AcDbLine
10
10.000000149011612
20
125.00000186264515
30
0
11
19.000000283122063
21
125.00000186264515
31
0
0
LINE
5
152
100
AcDbEntity
8
0
100
AcDbLine
10
21.000000312924385
20
125.00000186264515
30
0
11
29.999999999999993
21
125.00000186264515
31
0
0
ENDSEC
0
SECTION
2
OBJECTS
0
DICTIONARY
5
C
100
AcDbDictionary
3
ACAD_GROUP
350
D
3
ACAD_MLINESTYLE
350
17
0
DICTIONARY
5
D
100
AcDbDictionary
0
DICTIONARY
5
1A
330
C
100
AcDbDictionary
0
DICTIONARY
5
17
100
AcDbDictionary
0
ENDSEC
0
EOF
