0
SECTION
2
HEADER
9
$INSUNITS
70
4
9
$ACADVER
1
AC1014
9
$HANDSEED
5
FFFF
0
ENDSEC
0
SECTION
2
TABLES
0
TABLE
2
VPORT
5
8
100
AcDbSymbolTable
0
ENDTAB
0
TABLE
2
LTYPE
5
5
100
AcDbSymbolTable
0
LTYPE
5
14
100
AcDbSymbolTableRecord
100
AcDbLinetypeTableRecord
2
BYBLOCK
70
0
0
LTYPE
5
15
100
AcDbSymbolTableRecord
100
AcDbLinetypeTableRecord
2
BYLAYER
70
0
0
ENDTAB
0
TABLE
2
LAYER
5
2
100
AcDbSymbolTable
70
2
0
LAYER
5
50
100
AcDbSymbolTableRecord
100
AcDbLayerTableRecord
2
0
70
0
6
CONTINUOUS
0
ENDTAB
0
TABLE
2
STYLE
5
3
100
AcDbSymbolTable
70
1
0
STYLE
5
11
100
AcDbSymbolTableRecord
100
AcDbTextStyleTableRecord
2
STANDARD
70
0
0
ENDTAB
0
TABLE
2
VIEW
5
6
100
AcDbSymbolTable
70
0
0
ENDTAB
0
TABLE
2
UCS
5
7
100
AcDbSymbolTable
70
0
0
ENDTAB
0
TABLE
2
APPID
5
9
100
AcDbSymbolTable
70
2
0
APPID
5
12
100
AcDbSymbolTableRecord
100
AcDbRegAppTableRecord
2
ACAD
70
0
0
ENDTAB
0
TABLE
2
DIMSTYLE
5
A
100
AcDbSymbolTable
70
1
0
ENDTAB
0
TABLE
2
BLOCK_RECORD
5
1
100
AcDbSymbolTable
70
1
0
BLOCK_RECORD
5
1F
100
AcDbSymbolTableRecord
100
AcDbBlockTableRecord
2
*MODEL_SPACE
0
BLOCK_RECORD
5
1B
100
AcDbSymbolTableRecord
100
AcDbBlockTableRecord
2
*PAPER_SPACE
0
ENDTAB
0
ENDSEC
0
SECTION
2
BLOCKS
0
BLOCK
5
20
100
AcDbEntity
100
AcDbBlockBegin
2
*MODEL_SPACE
0
ENDBLK
5
21
100
AcDbEntity
100
AcDbBlockEnd
0
BLOCK
5
1C
100
AcDbEntity
100
AcDbBlockBegin
2
*PAPER_SPACE
0
ENDBLK
5
1D
100
AcDbEntity
100
AcDbBlockEnd
0
ENDSEC
0
SECTION
2
ENTITIES
0
LINE
5
100
100
AcDbEntity
8
0
100
AcDbLine
10
0
20
41
30
0
11
0
21
215
31
0
0
LINE
5
101
100
AcDbEntity
8
0
100
AcDbLine
10
0
20
215
30
0
11
100
21
215
31
0
0
LINE
5
102
100
AcDbEntity
8
0
100
AcDbLine
10
100
20
215
30
0
11
100
21
40
31
0
0
LINE
5
103
100
AcDbEntity
8
0
100
AcDbLine
10
100
20
36.549999999999997
30
0
11
100
21
8.4499999999999922
31
0
0
LINE
5
104
100
AcDbEntity
8
0
100
AcDbLine
10
100
20
0
30
0
11
0
21
0
31
0
0
LINE
5
105
100
AcDbEntity
8
0
100
AcDbLine
10
100
20
215
30
0
11
100
21
185
31
0
0
LINE
5
106
100
AcDbEntity
8
0
100
AcDbLine
10
80
20
185
30
0
11
20
21
185
31
0
0
LINE
5
107
100
AcDbEntity
8
0
100
AcDbLine
10
80
20
185
30
0
11
80
21
60
31
0
0
LINE
5
108
100
AcDbEntity
8
0
100
AcDbLine
10
20
20
185
30
0
11
20
21
60
31
0
0
LINE
5
109
100
AcDbEntity
8
0
100
AcDbLine
10
80
20
60
30
0
11
20
21
60
31
0
0
LINE
5
110
100
AcDbEntity
8
0
100
AcDbLine
10
100
20
60
30
0
11
100
21
41
31
0
0
LINE
5
111
100
AcDbEntity
8
0
100
AcDbLine
10
99
20
40
30
0
11
75
21
40
31
0
0
LINE
5
112
100
AcDbEntity
8
0
100
AcDbLine
10
55
20
40
30
0
11
45
21
40
31
0
0
LINE
5
113
100
AcDbEntity
8
0
100
AcDbLine
10
25
20
40
30
0
11
1.0000000000000011
21
40
31
0
0
LINE
5
114
100
AcDbEntity
8
0
100
AcDbLine
10
75
20
40
30
0
11
75
21
37.549999999999997
31
0
0
LINE
5
115
100
AcDbEntity
8
0
100
AcDbLine
10
25
20
40
30
0
11
25
21
37.549999999999997
31
0
0
LINE
5
116
100
AcDbEntity
8
0
100
AcDbLine
10
75
20
37.549999999999997
30
0
11
99
21
37.549999999999997
31
0
0
LINE
5
117
100
AcDbEntity
8
0
100
AcDbLine
10
25
20
37.549999999999997
30
0
11
1.0000000000000009
21
37.549999999999997
31
0
0
LINE
5
118
100
AcDbEntity
8
0
100
AcDbLine
10
100
20
0
30
0
11
100
21
4
31
0
0
LINE
5
119
100
AcDbEntity
8
0
100
AcDbLine
10
99
20
4.9999999999999982
30
0
11
80
21
5
31
0
0
LINE
5
120
100
AcDbEntity
8
0
100
AcDbLine
10
0
20
0
30
0
11
0
21
4
31
0
0
LINE
5
121
100
AcDbEntity
8
0
100
AcDbLine
10
0.99999999999999989
20
5
30
0
11
20
21
5
31
0
0
LINE
5
122
100
AcDbEntity
8
0
100
AcDbLine
10
20
20
5
30
0
11
20
21
7.4500000000000002
31
0
0
LINE
5
123
100
AcDbEntity
8
0
100
AcDbLine
10
80
20
5
30
0
11
80
21
7.4500000000000002
31
0
0
LINE
5
124
100
AcDbEntity
8
0
100
AcDbLine
10
20
20
7.4500000000000002
30
0
11
0.99999999999999867
21
7.4500000000000002
31
0
0
LINE
5
125
100
AcDbEntity
8
0
100
AcDbLine
10
80
20
7.4500000000000002
30
0
11
99
21
7.4500000000000002
31
0
0
ARC
5
126
100
AcDbEntity
8
0
100
AcDbCircle
10
99
20
41
30
0
40
0.99999999999999645
210
-0
220
0
230
1
100
AcDbArc
50
-90
51
0
0
ARC
5
127
100
AcDbEntity
8
0
100
AcDbCircle
10
99
20
36.550000000000004
30
0
40
0.99999999999999645
210
0
220
0
230
1
100
AcDbArc
50
0
51
90
0
ARC
5
128
100
AcDbEntity
8
0
100
AcDbCircle
10
99
20
8.4499999999999922
30
0
40
0.99999999999999312
210
0
220
0
230
1
100
AcDbArc
50
-90
51
0
0
ARC
5
129
100
AcDbEntity
8
0
100
AcDbCircle
10
99
20
4.0000000000000018
30
0
40
0.99999999999999645
210
0
220
0
230
1
100
AcDbArc
50
0
51
90
0
ARC
5
130
100
AcDbEntity
8
0
100
AcDbCircle
10
0.999999999999994
20
41
30
0
40
0.999999999999994
210
0
220
0
230
1
100
AcDbArc
50
180
51
270.0000000000004
0
LINE
5
131
100
AcDbEntity
8
0
100
AcDbLine
10
0
20
36.549999999999997
30
0
11
2.7755575615628914e-16
21
8.4500000000000028
31
0
0
ARC
5
132
100
AcDbEntity
8
0
100
AcDbCircle
10
1.0000000000000053
20
36.549999999999997
30
0
40
1.0000000000000053
210
0
220
0
230
1
100
AcDbArc
50
90.000000000000256
51
180
0
ARC
5
133
100
AcDbEntity
8
0
100
AcDbCircle
10
1.0000000000000022
20
8.4500000000000028
30
0
40
1.0000000000000018
210
0
220
0
230
1
100
AcDbArc
50
180
51
269.99999999999983
0
ARC
5
134
100
AcDbEntity
8
0
100
AcDbCircle
10
0.99999999999999978
20
4
30
0
40
0.99999999999999978
210
0
220
-0
230
1
100
AcDbArc
50
90
51
180
0
LINE
5
135
100
AcDbEntity
8
0
100
AcDbLine
10
20
20
185
30
0
11
80
21
185
31
0
0
LINE
5
136
100
AcDbEntity
8
0
100
AcDbLine
10
80
20
185
30
0
11
80
21
60
31
0
0
LINE
5
137
100
AcDbEntity
8
0
100
AcDbLine
10
80
20
60
30
0
11
20
21
60
31
0
0
LINE
5
138
100
AcDbEntity
8
0
100
AcDbLine
10
20
20
60
30
0
11
20
21
185
31
0
0
ENDSEC
0
SECTION
2
OBJECTS
0
DICTIONARY
5
C
100
AcDbDictionary
3
ACAD_GROUP
350
D
3
ACAD_MLINESTYLE
350
17
0
DICTIONARY
5
D
100
AcDbDictionary
0
DICTIONARY
5
1A
330
C
100
AcDbDictionary
0
DICTIONARY
5
17
100
AcDbDictionary
0
ENDSEC
0
EOF
