0
SECTION
2
HEADER
9
$INSUNITS
70
4
9
$ACADVER
1
AC1014
9
$HANDSEED
5
FFFF
0
ENDSEC
0
SECTION
2
TABLES
0
TABLE
2
VPORT
5
8
100
AcDbSymbolTable
0
ENDTAB
0
TABLE
2
LTYPE
5
5
100
AcDbSymbolTable
0
LTYPE
5
14
100
AcDbSymbolTableRecord
100
AcDbLinetypeTableRecord
2
BYBLOCK
70
0
0
LTYPE
5
15
100
AcDbSymbolTableRecord
100
AcDbLinetypeTableRecord
2
BYLAYER
70
0
0
ENDTAB
0
TABLE
2
LAYER
5
2
100
AcDbSymbolTable
70
2
0
LAYER
5
50
100
AcDbSymbolTableRecord
100
AcDbLayerTableRecord
2
0
70
0
6
CONTINUOUS
0
ENDTAB
0
TABLE
2
STYLE
5
3
100
AcDbSymbolTable
70
1
0
STYLE
5
11
100
AcDbSymbolTableRecord
100
AcDbTextStyleTableRecord
2
STANDARD
70
0
0
ENDTAB
0
TABLE
2
VIEW
5
6
100
AcDbSymbolTable
70
0
0
ENDTAB
0
TABLE
2
UCS
5
7
100
AcDbSymbolTable
70
0
0
ENDTAB
0
TABLE
2
APPID
5
9
100
AcDbSymbolTable
70
2
0
APPID
5
12
100
AcDbSymbolTableRecord
100
AcDbRegAppTableRecord
2
ACAD
70
0
0
ENDTAB
0
TABLE
2
DIMSTYLE
5
A
100
AcDbSymbolTable
70
1
0
ENDTAB
0
TABLE
2
BLOCK_RECORD
5
1
100
AcDbSymbolTable
70
1
0
BLOCK_RECORD
5
1F
100
AcDbSymbolTableRecord
100
AcDbBlockTableRecord
2
*MODEL_SPACE
0
BLOCK_RECORD
5
1B
100
AcDbSymbolTableRecord
100
AcDbBlockTableRecord
2
*PAPER_SPACE
0
ENDTAB
0
ENDSEC
0
SECTION
2
BLOCKS
0
BLOCK
5
20
100
AcDbEntity
100
AcDbBlockBegin
2
*MODEL_SPACE
0
ENDBLK
5
21
100
AcDbEntity
100
AcDbBlockEnd
0
BLOCK
5
1C
100
AcDbEntity
100
AcDbBlockBegin
2
*PAPER_SPACE
0
ENDBLK
5
1D
100
AcDbEntity
100
AcDbBlockEnd
0
ENDSEC
0
SECTION
2
ENTITIES
0
LINE
5
100
100
AcDbEntity
8
0
100
AcDbLine
10
0
20
0
30
0
11
100
21
0
31
0
0
LINE
5
101
100
AcDbEntity
8
0
100
AcDbLine
10
100
20
140
30
0
11
60
21
140
31
0
0
LINE
5
102
100
AcDbEntity
8
0
100
AcDbLine
10
0
20
140
30
0
11
40
21
140
31
0
0
CIRCLE
5
103
100
AcDbEntity
8
0
100
AcDbCircle
10
50
20
30
30
0
40
20
210
0
220
0
230
1
0
LINE
5
104
100
AcDbEntity
8
0
100
AcDbLine
10
0.99999999999999978
20
40.000000596046448
30
0
11
25
21
40.000000596046448
31
0
0
LINE
5
105
100
AcDbEntity
8
0
100
AcDbLine
10
25
20
40.000000596046448
30
0
11
25
21
37.550000596046445
31
0
0
LINE
5
106
100
AcDbEntity
8
0
100
AcDbLine
10
25
20
37.550000596046445
30
0
11
1.0000000000000009
21
37.550000596046445
31
0
0
LINE
5
107
100
AcDbEntity
8
0
100
AcDbLine
10
99
20
40
30
0
11
75
21
40
31
0
0
LINE
5
108
100
AcDbEntity
8
0
100
AcDbLine
10
75
20
40
30
0
11
75
21
37.549999999999997
31
0
0
LINE
5
109
100
AcDbEntity
8
0
100
AcDbLine
10
75
20
37.549999999999997
30
0
11
99.00000004950553
21
37.549999999999997
31
0
0
LINE
5
110
100
AcDbEntity
8
0
100
AcDbLine
10
99.000001192092867
20
5.000000074505806
30
0
11
80.000001490116119
21
5.000000074505806
31
0
0
LINE
5
111
100
AcDbEntity
8
0
100
AcDbLine
10
80.000001490116119
20
5.000000074505806
30
0
11
80.000001490116119
21
7.4500000745058061
31
0
0
LINE
5
112
100
AcDbEntity
8
0
100
AcDbLine
10
80.000001490116119
20
7.4500000745058061
30
0
11
99.000001440610603
21
7.4500000745058061
31
0
0
LINE
5
113
100
AcDbEntity
8
0
100
AcDbLine
10
0.99999999999999989
20
5
30
0
11
20
21
5
31
0
0
LINE
5
114
100
AcDbEntity
8
0
100
AcDbLine
10
20
20
5
30
0
11
20
21
7.4500000000000002
31
0
0
LINE
5
115
100
AcDbEntity
8
0
100
AcDbLine
10
20
20
7.4500000000000002
30
0
11
1.0000000000000031
21
7.4500000000000002
31
0
0
LINE
5
116
100
AcDbEntity
8
0
100
AcDbLine
10
40
20
140
30
0
11
40
21
47.320508075688764
31
0
0
LINE
5
117
100
AcDbEntity
8
0
100
AcDbLine
10
60
20
140
30
0
11
60
21
47.320508075688764
31
0
0
LINE
5
118
100
AcDbEntity
8
0
100
AcDbLine
10
0
20
140
30
0
11
100
21
140
31
0
0
LINE
5
119
100
AcDbEntity
8
0
100
AcDbLine
10
0
20
0
30
0
11
-1.3877787807814457e-16
21
4
31
0
0
LINE
5
120
100
AcDbEntity
8
0
100
AcDbLine
10
1.5265566588595902e-15
20
8.4499999999999993
30
0
11
0
21
36.550000596046445
31
0
0
LINE
5
121
100
AcDbEntity
8
0
100
AcDbLine
10
100
20
0
30
0
11
100.00000119209278
21
3.9999997764825861
31
0
0
LINE
5
122
100
AcDbEntity
8
0
100
AcDbLine
10
100.00000144061059
20
8.4500001240113249
30
0
11
100.00000004950552
21
36.550000049505513
31
0
0
LINE
5
123
100
AcDbEntity
8
0
100
AcDbLine
10
100
20
41
30
0
11
100
21
140
31
0
0
LINE
5
124
100
AcDbEntity
8
0
100
AcDbLine
10
-2.4980018054066022e-15
20
41.000000596046448
30
0
11
0
21
140.00000059604645
31
0
0
ARC
5
125
100
AcDbEntity
8
0
100
AcDbCircle
10
0.999999999999994
20
41.000000596046448
30
0
40
0.99999999999999645
210
0
220
-0
230
1
100
AcDbArc
50
180
51
270.00000000000034
0
ARC
5
126
100
AcDbEntity
8
0
100
AcDbCircle
10
1.0000000000000053
20
36.550000596046445
30
0
40
1.0000000000000053
210
0
220
0
230
1
100
AcDbArc
50
90.000000000000256
51
180
0
ARC
5
127
100
AcDbEntity
8
0
100
AcDbCircle
10
1.0000000000000024
20
8.4500000000000011
30
0
40
1.0000000000000009
210
0
220
0
230
1
100
AcDbArc
50
180
51
270.00000000000006
0
ARC
5
128
100
AcDbEntity
8
0
100
AcDbCircle
10
0.99999999999999967
20
4
30
0
40
0.99999999999999978
210
0
220
-0
230
1
100
AcDbArc
50
89.999999999999986
51
180
0
ARC
5
129
100
AcDbEntity
8
0
100
AcDbCircle
10
99.000001192092867
20
4.0000000745058273
30
0
40
0.9999999999999698
210
-0
220
0
230
1
100
AcDbArc
50
-1.7075472925031877e-05
51
90
0
ARC
5
130
100
AcDbEntity
8
0
100
AcDbCircle
10
99.000001440610603
20
8.450000074505791
30
0
40
0.99999999999998535
210
0
220
0
230
1
100
AcDbArc
50
-90
51
2.699869328381916e-06
0
ARC
5
131
100
AcDbEntity
8
0
100
AcDbCircle
10
99.00000004950553
20
36.549999999999997
30
0
40
0.99999999999999767
210
0
220
-0
230
1
100
AcDbArc
50
2.699869328381916e-06
51
90
0
ARC
5
132
100
AcDbEntity
8
0
100
AcDbCircle
10
99
20
41
30
0
40
0.99999999999999645
210
0
220
0
230
1
100
AcDbArc
50
-90
51
0
0
ENDSEC
0
SECTION
2
OBJECTS
0
DICTIONARY
5
C
100
AcDbDictionary
3
ACAD_GROUP
350
D
3
ACAD_MLINESTYLE
350
17
0
DICTIONARY
5
D
100
AcDbDictionary
0
DICTIONARY
5
1A
330
C
100
AcDbDictionary
0
DICTIONARY
5
17
100
AcDbDictionary
0
ENDSEC
0
EOF
